<svg width="16" height="16" viewBox="0 0 16 16" fill="none" xmlns="http://www.w3.org/2000/svg">
<g clip-path="url(#clip0_1_890)">
<path fill-rule="evenodd" clip-rule="evenodd" d="M4.97699 0.710992C5.75899 0.674992 6.00833 0.666992 8.00033 0.666992C9.99233 0.666992 10.2417 0.675659 11.023 0.710992C11.8043 0.746326 12.3377 0.870992 12.8043 1.05166C13.293 1.23633 13.7363 1.52499 14.103 1.89833C14.4763 2.26433 14.7643 2.70699 14.9483 3.19633C15.1297 3.66299 15.2537 4.19633 15.2897 4.97633C15.3257 5.75966 15.3337 6.00899 15.3337 8.00033C15.3337 9.99233 15.325 10.2417 15.2897 11.0237C15.2543 11.8037 15.1297 12.337 14.9483 12.8037C14.7643 13.2931 14.4758 13.7365 14.103 14.103C13.7363 14.4763 13.293 14.7643 12.8043 14.9483C12.3377 15.1297 11.8043 15.2537 11.0243 15.2897C10.2417 15.3257 9.99233 15.3337 8.00033 15.3337C6.00833 15.3337 5.75899 15.325 4.97699 15.2897C4.19699 15.2543 3.66366 15.1297 3.19699 14.9483C2.70761 14.7643 2.26421 14.4758 1.89766 14.103C1.52458 13.7368 1.23587 13.2936 1.05166 12.8043C0.870992 12.3377 0.746992 11.8043 0.710992 11.0243C0.674992 10.241 0.666992 9.99166 0.666992 8.00033C0.666992 6.00833 0.675659 5.75899 0.710992 4.97766C0.746326 4.19633 0.870992 3.66299 1.05166 3.19633C1.23614 2.70705 1.52507 2.26387 1.89833 1.89766C2.26435 1.52466 2.70731 1.23595 3.19633 1.05166C3.66299 0.870992 4.19633 0.746992 4.97633 0.710992H4.97699ZM10.9637 2.03099C10.1903 1.99566 9.95833 1.98833 8.00033 1.98833C6.04233 1.98833 5.81033 1.99566 5.03699 2.03099C4.32166 2.06366 3.93366 2.18299 3.67499 2.28366C3.33299 2.41699 3.08833 2.57499 2.83166 2.83166C2.58836 3.06836 2.40111 3.35651 2.28366 3.67499C2.18299 3.93366 2.06366 4.32166 2.03099 5.03699C1.99566 5.81033 1.98833 6.04233 1.98833 8.00033C1.98833 9.95833 1.99566 10.1903 2.03099 10.9637C2.06366 11.679 2.18299 12.067 2.28366 12.3257C2.40099 12.6437 2.58833 12.9323 2.83166 13.169C3.06833 13.4123 3.35699 13.5997 3.67499 13.717C3.93366 13.8177 4.32166 13.937 5.03699 13.9697C5.81033 14.005 6.04166 14.0123 8.00033 14.0123C9.95899 14.0123 10.1903 14.005 10.9637 13.9697C11.679 13.937 12.067 13.8177 12.3257 13.717C12.6677 13.5837 12.9123 13.4257 13.169 13.169C13.4123 12.9323 13.5997 12.6437 13.717 12.3257C13.8177 12.067 13.937 11.679 13.9697 10.9637C14.005 10.1903 14.0123 9.95833 14.0123 8.00033C14.0123 6.04233 14.005 5.81033 13.9697 5.03699C13.937 4.32166 13.8177 3.93366 13.717 3.67499C13.5837 3.33299 13.4257 3.08833 13.169 2.83166C12.9323 2.58837 12.6441 2.40113 12.3257 2.28366C12.067 2.18299 11.679 2.06366 10.9637 2.03099ZM7.06366 10.261C7.58677 10.4787 8.16924 10.5081 8.71161 10.3441C9.25398 10.1801 9.72259 9.83294 10.0374 9.36182C10.3522 8.89071 10.4937 8.32491 10.4377 7.76106C10.3817 7.19722 10.1317 6.67031 9.73033 6.27033C9.47448 6.01464 9.16513 5.81887 8.82455 5.69709C8.48396 5.57531 8.12061 5.53057 7.76066 5.56607C7.4007 5.60157 7.05309 5.71644 6.74286 5.90241C6.43263 6.08838 6.16749 6.34082 5.96653 6.64156C5.76557 6.9423 5.63378 7.28385 5.58067 7.64163C5.52755 7.99941 5.55443 8.36452 5.65935 8.71067C5.76428 9.05682 5.94465 9.3754 6.18747 9.64347C6.4303 9.91155 6.72954 10.1224 7.06366 10.261ZM5.33499 5.33499C5.68501 4.98498 6.10054 4.70733 6.55786 4.5179C7.01518 4.32847 7.50533 4.23097 8.00033 4.23097C8.49532 4.23097 8.98548 4.32847 9.44279 4.5179C9.90011 4.70733 10.3156 4.98498 10.6657 5.33499C11.0157 5.68501 11.2933 6.10054 11.4828 6.55786C11.6722 7.01518 11.7697 7.50533 11.7697 8.00033C11.7697 8.49532 11.6722 8.98548 11.4828 9.44279C11.2933 9.90011 11.0157 10.3156 10.6657 10.6657C9.95877 11.3726 9.00002 11.7697 8.00033 11.7697C7.00063 11.7697 6.04188 11.3726 5.33499 10.6657C4.6281 9.95877 4.23098 9.00002 4.23098 8.00033C4.23098 7.00063 4.6281 6.04188 5.33499 5.33499ZM12.6057 4.79233C12.6924 4.71051 12.7618 4.61211 12.8099 4.50297C12.8579 4.39384 12.8835 4.27617 12.8853 4.15695C12.887 4.03772 12.8648 3.91936 12.82 3.80887C12.7752 3.69837 12.7086 3.598 12.6243 3.51368C12.54 3.42937 12.4396 3.36283 12.3291 3.318C12.2186 3.27318 12.1003 3.25098 11.981 3.25271C11.8618 3.25445 11.7441 3.28009 11.635 3.32812C11.5259 3.37615 11.4275 3.44559 11.3457 3.53233C11.1865 3.70101 11.0994 3.92507 11.1028 4.15695C11.1062 4.38882 11.1998 4.61024 11.3638 4.77422C11.5277 4.9382 11.7492 5.03181 11.981 5.03519C12.2129 5.03857 12.437 4.95145 12.6057 4.79233Z" fill="#C5C5C5"/>
</g>
<defs>
<clipPath id="clip0_1_890">
<rect width="16" height="16" fill="white"/>
</clipPath>
</defs>
</svg>
