<svg width="17" height="18" viewBox="0 0 17 18" fill="none" xmlns="http://www.w3.org/2000/svg">
<path fill-rule="evenodd" clip-rule="evenodd" d="M0.272866 0.0712529C0.192529 0.113689 0.113914 0.194554 0.0707041 0.279252C0.000457051 0.417003 0 0.47157 0 8.99938C0 17.5306 0.000421924 17.5817 0.0707744 17.7196C0.11634 17.809 0.191017 17.8837 0.280355 17.9292C0.417931 17.9994 0.47415 18 6.85594 18C13.2377 18 13.294 17.9994 13.4315 17.9292C13.5209 17.8837 13.5955 17.809 13.6411 17.7196C13.7065 17.5914 13.7119 17.5135 13.7119 16.6885V15.7961L14.0315 15.7177C15.3909 15.3843 16.4158 14.3641 16.7744 12.9875C16.8926 12.5338 16.8926 11.7232 16.7744 11.2695C16.416 9.89357 15.392 8.87295 14.0364 8.54049L13.7119 8.46092V5.8454C13.7119 3.52057 13.7057 3.21736 13.6557 3.11733C13.5783 2.96211 10.772 0.150782 10.6105 0.0666823C10.4833 0.000443316 10.3545 -0.00120914 5.44221 0.000302679C0.495807 0.00184966 0.401934 0.00311538 0.272866 0.0712529ZM9.84443 2.25032C9.84443 3.38039 9.84837 3.45485 9.91521 3.58586C9.96077 3.67519 10.0354 3.74987 10.1248 3.79544C10.2558 3.86227 10.3303 3.86621 11.4603 3.86621H12.6571V6.16355V8.46092L12.3375 8.53929C11.7196 8.69083 11.1219 9.01007 10.6669 9.43155L10.4522 9.63048L7.86556 9.64015C5.31554 9.64967 5.27753 9.65083 5.18186 9.72231C4.85186 9.96874 4.84364 10.3927 5.16474 10.6072L5.28421 10.687H7.53292C9.38216 10.687 9.77847 10.6953 9.76381 10.7334C9.65841 11.0081 9.55374 11.429 9.52062 11.7113L9.4799 12.0582H7.40853C5.57022 12.0582 5.32362 12.0646 5.21688 12.1152C4.83228 12.2978 4.83478 12.8556 5.22106 13.0426C5.36142 13.1106 5.43813 13.1129 7.49509 13.1129H9.62385L9.73495 13.4235C9.92709 13.9607 10.3291 14.5369 10.7786 14.9196C11.2874 15.3529 11.8408 15.6158 12.5604 15.7661L12.6571 15.7863V16.3658V16.9452H6.85594H1.05476V8.99938V1.05352H5.4496H9.84443V2.25032ZM11.409 2.31923L11.9003 2.81145H11.3997H10.8992V2.31923C10.8992 2.04851 10.9034 1.82701 10.9084 1.82701C10.9135 1.82701 11.1388 2.04851 11.409 2.31923ZM2.35205 2.50451C2.02039 2.72608 2.04219 3.18491 2.3942 3.39101C2.54225 3.47767 3.14807 3.51002 3.43237 3.44642C3.82252 3.35908 3.99406 2.92111 3.75646 2.61903C3.62275 2.44907 3.52511 2.4247 2.97787 2.4247C2.50998 2.4247 2.46244 2.43075 2.35205 2.50451ZM5.16474 2.50451C4.83295 2.72616 4.85485 3.18403 5.20718 3.39157C5.32028 3.45819 5.40097 3.46248 6.75047 3.47324C8.36414 3.48607 8.47873 3.47468 8.64552 3.28472C8.81734 3.08903 8.83109 2.81282 8.67867 2.61903C8.52478 2.4234 8.53698 2.4247 6.84532 2.4247H5.28421L5.16474 2.50451ZM2.4057 4.88648C2.02191 5.07644 2.02103 5.63135 2.40419 5.81319C2.57622 5.8948 3.40076 5.8948 3.57279 5.81319C3.95739 5.63068 3.95489 5.07282 3.56861 4.88581C3.35516 4.78248 2.61493 4.78294 2.4057 4.88648ZM5.21839 4.88648C4.8346 5.07644 4.83372 5.63135 5.21688 5.81319C5.32468 5.86431 5.62268 5.87026 8.0865 5.87026C10.5503 5.87026 10.8483 5.86431 10.9561 5.81319C11.3407 5.63068 11.3382 5.07282 10.9519 4.88581C10.8105 4.81736 10.7349 4.8155 8.08418 4.81553C5.42453 4.81557 5.35839 4.81718 5.21839 4.88648ZM2.35205 7.32125C2.03094 7.53576 2.03917 7.95974 2.36917 8.20613C2.45703 8.27173 2.51588 8.27863 2.98849 8.27863C3.46109 8.27863 3.51995 8.27173 3.60781 8.20613C3.93781 7.95974 3.94603 7.53576 3.62493 7.32125C3.51425 7.24732 3.46742 7.24144 2.98849 7.24144C2.50956 7.24144 2.46272 7.24732 2.35205 7.32125ZM5.16474 7.32125C4.84364 7.53576 4.85186 7.95974 5.18186 8.20613C5.27802 8.27792 5.30576 8.27863 8.0865 8.27863C10.8672 8.27863 10.895 8.27792 10.9911 8.20613C11.3211 7.95974 11.3294 7.53576 11.0083 7.32125L10.8888 7.24144H8.0865H5.28421L5.16474 7.32125ZM13.7045 9.54757C14.6863 9.75037 15.4693 10.4913 15.7408 11.4746C15.822 11.7688 15.822 12.4882 15.7408 12.7824C15.4693 13.7657 14.6863 14.5066 13.7045 14.7094C11.8798 15.0863 10.2286 13.4353 10.6032 11.6084C10.895 10.1848 12.2928 9.25597 13.7045 9.54757ZM2.48234 9.66708C2.14999 9.77199 2.00658 10.2207 2.21904 10.4908C2.35433 10.6628 2.45063 10.687 2.99911 10.687C3.467 10.687 3.51453 10.6809 3.62493 10.6072C3.946 10.3927 3.93784 9.96881 3.60788 9.72231C3.52279 9.65874 3.45367 9.6489 3.04748 9.64236C2.79265 9.63828 2.53835 9.64939 2.48234 9.66708ZM14.0459 10.9275C13.9879 10.9652 13.6883 11.2501 13.3801 11.5605L12.8197 12.1249L12.5646 11.8826C12.2827 11.6148 12.1496 11.563 11.9202 11.6317C11.6409 11.7154 11.4828 12.0013 11.5647 12.2748C11.5974 12.3838 11.7041 12.5195 11.9834 12.8073C12.1896 13.0197 12.4286 13.2386 12.5146 13.2938C12.6901 13.4066 12.8833 13.4251 13.0368 13.3441C13.089 13.3165 13.5063 12.917 13.9641 12.4563C14.6798 11.7361 14.7998 11.6 14.8209 11.4853C14.8538 11.3062 14.7594 11.0632 14.6177 10.9624C14.4653 10.8539 14.1853 10.8368 14.0459 10.9275ZM2.39845 12.1167C2.01902 12.3037 2.02493 12.857 2.40837 13.0426C2.62347 13.1468 3.35625 13.1454 3.57297 13.0405C3.95303 12.8565 3.95289 12.2956 3.57279 12.1152C3.40118 12.0338 2.56447 12.0348 2.39845 12.1167ZM2.48414 14.5003C2.40981 14.5268 2.31063 14.5844 2.2638 14.6285C2.09004 14.7917 2.06863 15.1163 2.21904 15.3075C2.3538 15.4788 2.4514 15.5037 2.98849 15.5037C3.35737 15.5037 3.50996 15.4904 3.58481 15.4517C4.00545 15.2342 3.92712 14.6138 3.46313 14.4876C3.26512 14.4338 2.64829 14.4417 2.48414 14.5003ZM5.29683 14.5003C5.11738 14.5643 4.99999 14.6797 4.95224 14.839C4.87936 15.0822 4.98476 15.3379 5.20486 15.4517C5.35432 15.529 8.00598 15.529 8.15544 15.4517C8.57608 15.2342 8.49775 14.6138 8.03376 14.4876C7.81356 14.4277 5.46988 14.4386 5.29683 14.5003Z" fill="url(#paint0_linear_1_923)"/>
<defs>
<linearGradient id="paint0_linear_1_923" x1="0" y1="4.99293" x2="16.8658" y2="4.91333" gradientUnits="userSpaceOnUse">
<stop stop-color="#F5BD4D"/>
<stop offset="1" stop-color="#F89222"/>
</linearGradient>
</defs>
</svg>
