<svg width="1920" height="887" viewBox="0 0 1920 887" fill="none" xmlns="http://www.w3.org/2000/svg">
<mask id="mask0_1_3" style="mask-type:alpha" maskUnits="userSpaceOnUse" x="0" y="0" width="1920" height="887">
<rect opacity="0.1" width="1920" height="887" fill="#D9D9D9"/>
</mask>
<g mask="url(#mask0_1_3)">
<path d="M1920 1188.37H0V0H1920V1188.37Z" fill="#2D2D2D"/>
<g style="mix-blend-mode:screen">
<path d="M1615.81 -31.5606L128.858 1468.48L119.905 1459.44L1606.95 -40.5918L1615.81 -31.5606Z" fill="url(#paint0_linear_1_3)"/>
<path d="M1585.52 -62.1143L1594.48 -53.1792L107.525 1446.86L98.5723 1437.92L1585.52 -62.1143Z" fill="url(#paint1_linear_1_3)"/>
<path d="M1564.19 -83.7305L1573.05 -74.6993L86.0959 1425.34L77.1436 1416.31L1564.19 -83.7305Z" fill="url(#paint2_linear_1_3)"/>
<path d="M1542.76 -105.252L1551.71 -96.3169L64.6667 1403.72L55.8096 1394.78L1542.76 -105.252Z" fill="url(#paint3_linear_1_3)"/>
<path d="M1521.33 -126.869L1530.29 -117.838L43.3332 1382.2L34.3809 1373.17L1521.33 -126.869Z" fill="url(#paint4_linear_1_3)"/>
<path d="M1500 -148.485L1508.95 -139.454L21.905 1360.58L13.0479 1351.65L1500 -148.485Z" fill="url(#paint5_linear_1_3)"/>
<path d="M1478.57 -170.007L1487.52 -161.072L0.571522 1339.06L-8.38086 1330.03L1478.57 -170.007Z" fill="url(#paint6_linear_1_3)"/>
<path d="M1457.24 -191.624L1466.1 -182.593L-20.8567 1317.44L-29.7139 1308.51L1457.24 -191.624Z" fill="url(#paint7_linear_1_3)"/>
<path d="M1435.81 -213.146L1444.76 -204.21L-42.1902 1295.92L-51.1426 1286.89L1435.81 -213.146Z" fill="url(#paint8_linear_1_3)"/>
<path d="M1414.48 -234.763L1423.33 -225.732L-63.6184 1274.31L-72.4756 1265.27L1414.48 -234.763Z" fill="url(#paint9_linear_1_3)"/>
<path d="M1393.05 -256.283L1402 -247.348L-84.9519 1252.78L-93.9043 1243.75L1393.05 -256.283Z" fill="url(#paint10_linear_1_3)"/>
<path d="M1371.71 -277.9L1380.57 -268.869L-106.381 1231.17L-115.333 1222.14L1371.71 -277.9Z" fill="url(#paint11_linear_1_3)"/>
<path d="M1350.29 -299.421L1359.24 -290.486L-127.809 1209.55L-136.666 1200.62L1350.29 -299.421Z" fill="url(#paint12_linear_1_3)"/>
<path d="M1328.95 -321.038L1337.81 -312.007L-149.142 1188.03L-158.095 1179L1328.95 -321.038Z" fill="url(#paint13_linear_1_3)"/>
<path d="M1307.52 -342.655L1316.48 -333.624L-170.571 1166.41L-179.428 1157.48L1307.52 -342.655Z" fill="url(#paint14_linear_1_3)"/>
<path d="M1286.1 -364.177L1295.05 -355.146L-191.904 1144.89L-200.856 1135.86L1286.1 -364.177Z" fill="url(#paint15_linear_1_3)"/>
<path d="M1264.76 -385.794L1273.71 -376.763L-213.333 1123.27L-222.19 1114.34L1264.76 -385.794Z" fill="url(#paint16_linear_1_3)"/>
<path d="M1243.33 -407.315L1252.29 -398.38L-234.667 1101.75L-243.619 1092.72L1243.33 -407.315Z" fill="url(#paint17_linear_1_3)"/>
<path d="M1222 -428.932L1230.86 -419.9L-256.095 1080.14L-264.952 1071.2L1222 -428.932Z" fill="url(#paint18_linear_1_3)"/>
<path d="M1200.57 -450.453L1209.52 -441.518L-277.428 1058.61L-286.381 1049.58L1200.57 -450.453Z" fill="url(#paint19_linear_1_3)"/>
<path d="M1179.24 -472.07L1188.1 -463.039L-298.857 1037L-307.81 1027.97L1179.24 -472.07Z" fill="url(#paint20_linear_1_3)"/>
<path d="M1157.81 -493.592L1166.76 -484.657L-320.19 1015.48L-329.142 1006.44L1157.81 -493.592Z" fill="url(#paint21_linear_1_3)"/>
<path d="M1136.48 -515.209L1145.33 -506.178L-341.619 993.859L-350.571 984.828L1136.48 -515.209Z" fill="url(#paint22_linear_1_3)"/>
<path d="M1115.05 -536.729L1124 -527.794L-363.047 972.242L-371.904 963.307L1115.05 -536.729Z" fill="url(#paint23_linear_1_3)"/>
<path d="M1093.71 -558.347L1102.57 -549.316L-384.381 950.721L-393.333 941.69L1093.71 -558.347Z" fill="url(#paint24_linear_1_3)"/>
<path d="M1072.29 -579.964L1081.24 -570.933L-405.809 929.104L-414.666 920.169L1072.29 -579.964Z" fill="url(#paint25_linear_1_3)"/>
<path d="M1050.86 -601.485L1059.81 -592.454L-427.142 907.582L-436.095 898.551L1050.86 -601.485Z" fill="url(#paint26_linear_1_3)"/>
<path d="M1029.52 -623.102L1038.38 -614.07L-448.571 885.966L-457.428 877.031L1029.52 -623.102Z" fill="url(#paint27_linear_1_3)"/>
<path d="M1008.1 -644.623L1017.05 -635.688L-469.904 864.445L-478.856 855.414L1008.1 -644.623Z" fill="url(#paint28_linear_1_3)"/>
<path d="M986.762 -666.24L995.619 -657.209L-491.333 842.828L-500.19 833.892L986.762 -666.24Z" fill="url(#paint29_linear_1_3)"/>
<path d="M965.333 -687.762L974.286 -678.827L-512.667 821.306L-521.619 812.275L965.333 -687.762Z" fill="url(#paint30_linear_1_3)"/>
<path d="M944.001 -709.378L952.858 -700.347L-534.094 799.69L-543.047 790.659L944.001 -709.378Z" fill="url(#paint31_linear_1_3)"/>
<path d="M922.572 -730.899L931.524 -721.964L-555.429 778.072L-564.381 769.137L922.572 -730.899Z" fill="url(#paint32_linear_1_3)"/>
<path d="M901.238 -752.517L910.095 -743.485L-576.857 756.551L-585.81 747.52L901.238 -752.517Z" fill="url(#paint33_linear_1_3)"/>
<path d="M879.81 -774.038L888.762 -765.103L-598.285 734.934L-607.142 725.999L879.81 -774.038Z" fill="url(#paint34_linear_1_3)"/>
<path d="M858.381 -795.655L867.334 -786.624L-619.619 713.412L-628.571 704.381L858.381 -795.655Z" fill="url(#paint35_linear_1_3)"/>
<path d="M837.048 -817.272L846 -808.241L-641.047 691.795L-649.904 682.86L837.048 -817.272Z" fill="url(#paint36_linear_1_3)"/>
<path d="M815.619 -838.793L824.572 -829.762L-662.381 670.275L-671.333 661.244L815.619 -838.793Z" fill="url(#paint37_linear_1_3)"/>
</g>
<g style="mix-blend-mode:screen">
<path d="M315.715 1304.38L1802.67 -195.756L1811.52 -186.725L324.572 1313.31L315.715 1304.38Z" fill="url(#paint38_linear_1_3)"/>
<path d="M346 1334.93L337.048 1325.9L1824 -174.139L1832.95 -165.108L346 1334.93Z" fill="url(#paint39_linear_1_3)"/>
<path d="M367.333 1356.45L358.476 1347.52L1845.43 -152.521L1854.38 -143.586L367.333 1356.45Z" fill="url(#paint40_linear_1_3)"/>
<path d="M388.763 1378.07L379.81 1369.04L1866.86 -131.001L1875.71 -121.97L388.763 1378.07Z" fill="url(#paint41_linear_1_3)"/>
<path d="M410.095 1399.59L401.238 1390.65L1888.19 -109.384L1897.14 -100.449L410.095 1399.59Z" fill="url(#paint42_linear_1_3)"/>
<path d="M431.524 1421.21L422.572 1412.17L1909.62 -87.8623L1918.48 -78.8312L431.524 1421.21Z" fill="url(#paint43_linear_1_3)"/>
<path d="M452.953 1442.82L444.001 1433.79L1930.95 -66.2451L1939.91 -57.31L452.953 1442.82Z" fill="url(#paint44_linear_1_3)"/>
<path d="M474.286 1464.34L465.334 1455.41L1952.38 -44.7246L1961.24 -35.6934L474.286 1464.34Z" fill="url(#paint45_linear_1_3)"/>
<path d="M495.715 1485.96L486.762 1476.93L1973.71 -23.1074L1982.67 -14.1723L495.715 1485.96Z" fill="url(#paint46_linear_1_3)"/>
<path d="M517.048 1507.48L508.191 1498.55L1995.14 -1.58594L2004 7.44521L517.048 1507.48Z" fill="url(#paint47_linear_1_3)"/>
<path d="M538.477 1529.1L529.524 1520.07L2016.48 20.0303L2025.43 29.0614L538.477 1529.1Z" fill="url(#paint48_linear_1_3)"/>
<path d="M559.81 1550.62L550.953 1541.68L2037.91 41.5518L2046.86 50.5829L559.81 1550.62Z" fill="url(#paint49_linear_1_3)"/>
<path d="M581.238 1572.24L572.286 1563.21L2059.24 63.1699L2068.19 72.2011L581.238 1572.24Z" fill="url(#paint50_linear_1_3)"/>
<path d="M602.572 1593.76L593.715 1584.82L2080.67 84.7871L2089.62 93.7222L602.572 1593.76Z" fill="url(#paint51_linear_1_3)"/>
<path d="M624 1615.38L615.048 1606.34L2102.1 106.308L2110.95 115.339L624 1615.38Z" fill="url(#paint52_linear_1_3)"/>
<path d="M645.333 1636.99L636.476 1627.96L2123.43 127.925L2132.38 136.86L645.333 1636.99Z" fill="url(#paint53_linear_1_3)"/>
<path d="M666.763 1658.51L657.81 1649.48L2144.86 149.445L2153.71 158.476L666.763 1658.51Z" fill="url(#paint54_linear_1_3)"/>
<path d="M688.19 1680.13L679.238 1671.1L2166.19 171.062L2175.14 179.998L688.19 1680.13Z" fill="url(#paint55_linear_1_3)"/>
<path d="M709.524 1701.65L700.667 1692.72L2187.62 192.584L2196.48 201.615L709.524 1701.65Z" fill="url(#paint56_linear_1_3)"/>
<path d="M730.953 1723.27L722.001 1714.24L2208.95 214.201L2217.91 223.136L730.953 1723.27Z" fill="url(#paint57_linear_1_3)"/>
<path d="M752.286 1744.79L743.428 1735.85L2230.38 235.722L2239.24 244.753L752.286 1744.79Z" fill="url(#paint58_linear_1_3)"/>
<path d="M773.715 1766.41L764.762 1757.38L2251.71 257.339L2260.67 266.37L773.715 1766.41Z" fill="url(#paint59_linear_1_3)"/>
<path d="M795.048 1787.93L786.191 1778.99L2273.14 278.86L2282.1 287.892L795.048 1787.93Z" fill="url(#paint60_linear_1_3)"/>
<path d="M816.477 1809.54L807.524 1800.51L2294.48 300.477L2303.43 309.508L816.477 1809.54Z" fill="url(#paint61_linear_1_3)"/>
<path d="M837.81 1831.07L828.953 1822.13L2315.91 322.094L2324.86 331.029L837.81 1831.07Z" fill="url(#paint62_linear_1_3)"/>
<path d="M859.238 1852.68L850.286 1843.65L2337.33 343.616L2346.19 352.647L859.238 1852.68Z" fill="url(#paint63_linear_1_3)"/>
<path d="M880.667 1874.3L871.715 1865.27L2358.67 365.233L2367.62 374.168L880.667 1874.3Z" fill="url(#paint64_linear_1_3)"/>
<path d="M902 1895.82L893.048 1886.79L2380.1 386.754L2388.95 395.785L902 1895.82Z" fill="url(#paint65_linear_1_3)"/>
<path d="M923.429 1917.44L914.476 1908.41L2401.43 408.371L2410.38 417.306L923.429 1917.44Z" fill="url(#paint66_linear_1_3)"/>
<path d="M944.762 1938.96L935.905 1930.02L2422.86 429.892L2431.71 438.923L944.762 1938.96Z" fill="url(#paint67_linear_1_3)"/>
<path d="M966.19 1960.58L957.238 1951.55L2444.19 451.509L2453.14 460.444L966.19 1960.58Z" fill="url(#paint68_linear_1_3)"/>
<path d="M987.524 1982.1L978.667 1973.16L2465.62 473.03L2474.48 482.061L987.524 1982.1Z" fill="url(#paint69_linear_1_3)"/>
<path d="M1008.95 2003.72L1000 1994.68L2486.95 494.647L2495.91 503.679L1008.95 2003.72Z" fill="url(#paint70_linear_1_3)"/>
<path d="M1030.29 2025.24L1021.43 2016.3L2508.38 516.264L2517.33 525.2L1030.29 2025.24Z" fill="url(#paint71_linear_1_3)"/>
<path d="M1051.71 2046.85L1042.76 2037.82L2529.81 537.785L2538.67 546.816L1051.71 2046.85Z" fill="url(#paint72_linear_1_3)"/>
<path d="M1073.05 2068.37L1064.19 2059.44L2551.14 559.402L2560.1 568.337L1073.05 2068.37Z" fill="url(#paint73_linear_1_3)"/>
<path d="M1094.48 2089.99L1085.52 2080.96L2572.57 580.923L2581.43 589.954L1094.48 2089.99Z" fill="url(#paint74_linear_1_3)"/>
<path d="M1115.91 2111.61L1106.95 2102.58L2593.91 602.54L2602.86 611.475L1115.91 2111.61Z" fill="url(#paint75_linear_1_3)"/>
</g>
</g>
<defs>
<linearGradient id="paint0_linear_1_3" x1="103.81" y1="1298.9" x2="47.5981" y2="203.972" gradientUnits="userSpaceOnUse">
<stop stop-color="white"/>
<stop offset="1"/>
</linearGradient>
<linearGradient id="paint1_linear_1_3" x1="83.5247" y1="1297.84" x2="27.3127" y2="202.914" gradientUnits="userSpaceOnUse">
<stop stop-color="white"/>
<stop offset="1"/>
</linearGradient>
<linearGradient id="paint2_linear_1_3" x1="63.1435" y1="1296.79" x2="6.93162" y2="201.858" gradientUnits="userSpaceOnUse">
<stop stop-color="white"/>
<stop offset="1"/>
</linearGradient>
<linearGradient id="paint3_linear_1_3" x1="42.7619" y1="1295.73" x2="-13.45" y2="200.801" gradientUnits="userSpaceOnUse">
<stop stop-color="white"/>
<stop offset="1"/>
</linearGradient>
<linearGradient id="paint4_linear_1_3" x1="22.4761" y1="1294.77" x2="-33.7358" y2="199.744" gradientUnits="userSpaceOnUse">
<stop stop-color="white"/>
<stop offset="1"/>
</linearGradient>
<linearGradient id="paint5_linear_1_3" x1="2.09548" y1="1293.71" x2="-54.1164" y2="198.784" gradientUnits="userSpaceOnUse">
<stop stop-color="white"/>
<stop offset="1"/>
</linearGradient>
<linearGradient id="paint6_linear_1_3" x1="-18.2856" y1="1292.66" x2="-74.4976" y2="197.727" gradientUnits="userSpaceOnUse">
<stop stop-color="white"/>
<stop offset="1"/>
</linearGradient>
<linearGradient id="paint7_linear_1_3" x1="-38.571" y1="1291.6" x2="-94.7829" y2="196.67" gradientUnits="userSpaceOnUse">
<stop stop-color="white"/>
<stop offset="1"/>
</linearGradient>
<linearGradient id="paint8_linear_1_3" x1="-58.9521" y1="1290.54" x2="-115.164" y2="195.612" gradientUnits="userSpaceOnUse">
<stop stop-color="white"/>
<stop offset="1"/>
</linearGradient>
<linearGradient id="paint9_linear_1_3" x1="-79.3327" y1="1289.49" x2="-135.545" y2="194.555" gradientUnits="userSpaceOnUse">
<stop stop-color="white"/>
<stop offset="1"/>
</linearGradient>
<linearGradient id="paint10_linear_1_3" x1="-99.6186" y1="1288.43" x2="-155.831" y2="193.499" gradientUnits="userSpaceOnUse">
<stop stop-color="white"/>
<stop offset="1"/>
</linearGradient>
<linearGradient id="paint11_linear_1_3" x1="-120" y1="1287.37" x2="-176.212" y2="192.442" gradientUnits="userSpaceOnUse">
<stop stop-color="white"/>
<stop offset="1"/>
</linearGradient>
<linearGradient id="paint12_linear_1_3" x1="-140.38" y1="1286.41" x2="-196.592" y2="191.386" gradientUnits="userSpaceOnUse">
<stop stop-color="white"/>
<stop offset="1"/>
</linearGradient>
<linearGradient id="paint13_linear_1_3" x1="-160.666" y1="1285.35" x2="-216.878" y2="190.425" gradientUnits="userSpaceOnUse">
<stop stop-color="white"/>
<stop offset="1"/>
</linearGradient>
<linearGradient id="paint14_linear_1_3" x1="-181.047" y1="1284.3" x2="-237.259" y2="189.368" gradientUnits="userSpaceOnUse">
<stop stop-color="white"/>
<stop offset="1"/>
</linearGradient>
<linearGradient id="paint15_linear_1_3" x1="-201.428" y1="1283.24" x2="-257.64" y2="188.311" gradientUnits="userSpaceOnUse">
<stop stop-color="white"/>
<stop offset="1"/>
</linearGradient>
<linearGradient id="paint16_linear_1_3" x1="-221.714" y1="1282.18" x2="-277.926" y2="187.254" gradientUnits="userSpaceOnUse">
<stop stop-color="white"/>
<stop offset="1"/>
</linearGradient>
<linearGradient id="paint17_linear_1_3" x1="-242.095" y1="1281.13" x2="-298.307" y2="186.197" gradientUnits="userSpaceOnUse">
<stop stop-color="white"/>
<stop offset="1"/>
</linearGradient>
<linearGradient id="paint18_linear_1_3" x1="-262.476" y1="1280.07" x2="-318.688" y2="185.141" gradientUnits="userSpaceOnUse">
<stop stop-color="white"/>
<stop offset="1"/>
</linearGradient>
<linearGradient id="paint19_linear_1_3" x1="-282.762" y1="1279.11" x2="-338.974" y2="184.084" gradientUnits="userSpaceOnUse">
<stop stop-color="white"/>
<stop offset="1"/>
</linearGradient>
<linearGradient id="paint20_linear_1_3" x1="-303.143" y1="1278.05" x2="-359.355" y2="183.123" gradientUnits="userSpaceOnUse">
<stop stop-color="white"/>
<stop offset="1"/>
</linearGradient>
<linearGradient id="paint21_linear_1_3" x1="-323.523" y1="1277" x2="-379.735" y2="182.066" gradientUnits="userSpaceOnUse">
<stop stop-color="white"/>
<stop offset="1"/>
</linearGradient>
<linearGradient id="paint22_linear_1_3" x1="-343.904" y1="1275.94" x2="-400.019" y2="181.008" gradientUnits="userSpaceOnUse">
<stop stop-color="white"/>
<stop offset="1"/>
</linearGradient>
<linearGradient id="paint23_linear_1_3" x1="-364.19" y1="1274.88" x2="-420.402" y2="179.952" gradientUnits="userSpaceOnUse">
<stop stop-color="white"/>
<stop offset="1"/>
</linearGradient>
<linearGradient id="paint24_linear_1_3" x1="-384.571" y1="1273.82" x2="-440.783" y2="178.895" gradientUnits="userSpaceOnUse">
<stop stop-color="white"/>
<stop offset="1"/>
</linearGradient>
<linearGradient id="paint25_linear_1_3" x1="-404.952" y1="1272.77" x2="-461.067" y2="177.838" gradientUnits="userSpaceOnUse">
<stop stop-color="white"/>
<stop offset="1"/>
</linearGradient>
<linearGradient id="paint26_linear_1_3" x1="-425.238" y1="1271.71" x2="-481.45" y2="176.781" gradientUnits="userSpaceOnUse">
<stop stop-color="white"/>
<stop offset="1"/>
</linearGradient>
<linearGradient id="paint27_linear_1_3" x1="-445.618" y1="1270.75" x2="-501.83" y2="175.725" gradientUnits="userSpaceOnUse">
<stop stop-color="white"/>
<stop offset="1"/>
</linearGradient>
<linearGradient id="paint28_linear_1_3" x1="-465.999" y1="1269.69" x2="-522.114" y2="174.764" gradientUnits="userSpaceOnUse">
<stop stop-color="white"/>
<stop offset="1"/>
</linearGradient>
<linearGradient id="paint29_linear_1_3" x1="-486.286" y1="1268.64" x2="-542.498" y2="173.707" gradientUnits="userSpaceOnUse">
<stop stop-color="white"/>
<stop offset="1"/>
</linearGradient>
<linearGradient id="paint30_linear_1_3" x1="-506.667" y1="1267.58" x2="-562.879" y2="172.65" gradientUnits="userSpaceOnUse">
<stop stop-color="white"/>
<stop offset="1"/>
</linearGradient>
<linearGradient id="paint31_linear_1_3" x1="-527.047" y1="1266.52" x2="-583.162" y2="171.594" gradientUnits="userSpaceOnUse">
<stop stop-color="white"/>
<stop offset="1"/>
</linearGradient>
<linearGradient id="paint32_linear_1_3" x1="-547.333" y1="1265.47" x2="-603.545" y2="170.537" gradientUnits="userSpaceOnUse">
<stop stop-color="white"/>
<stop offset="1"/>
</linearGradient>
<linearGradient id="paint33_linear_1_3" x1="-567.714" y1="1264.41" x2="-623.926" y2="169.48" gradientUnits="userSpaceOnUse">
<stop stop-color="white"/>
<stop offset="1"/>
</linearGradient>
<linearGradient id="paint34_linear_1_3" x1="-588.095" y1="1263.35" x2="-644.307" y2="168.423" gradientUnits="userSpaceOnUse">
<stop stop-color="white"/>
<stop offset="1"/>
</linearGradient>
<linearGradient id="paint35_linear_1_3" x1="-608.381" y1="1262.39" x2="-664.592" y2="167.366" gradientUnits="userSpaceOnUse">
<stop stop-color="white"/>
<stop offset="1"/>
</linearGradient>
<linearGradient id="paint36_linear_1_3" x1="-628.761" y1="1261.33" x2="-684.973" y2="166.405" gradientUnits="userSpaceOnUse">
<stop stop-color="white"/>
<stop offset="1"/>
</linearGradient>
<linearGradient id="paint37_linear_1_3" x1="-649.143" y1="1260.28" x2="-705.354" y2="165.349" gradientUnits="userSpaceOnUse">
<stop stop-color="white"/>
<stop offset="1"/>
</linearGradient>
<linearGradient id="paint38_linear_1_3" x1="1827.71" y1="-26.1815" x2="1883.83" y2="1068.75" gradientUnits="userSpaceOnUse">
<stop stop-color="white"/>
<stop offset="1"/>
</linearGradient>
<linearGradient id="paint39_linear_1_3" x1="1848" y1="-25.1246" x2="1904.21" y2="1069.8" gradientUnits="userSpaceOnUse">
<stop stop-color="white"/>
<stop offset="1"/>
</linearGradient>
<linearGradient id="paint40_linear_1_3" x1="1868.38" y1="-24.0677" x2="1924.59" y2="1070.86" gradientUnits="userSpaceOnUse">
<stop stop-color="white"/>
<stop offset="1"/>
</linearGradient>
<linearGradient id="paint41_linear_1_3" x1="1888.76" y1="-23.0114" x2="1944.97" y2="1071.92" gradientUnits="userSpaceOnUse">
<stop stop-color="white"/>
<stop offset="1"/>
</linearGradient>
<linearGradient id="paint42_linear_1_3" x1="1909.05" y1="-21.9545" x2="1965.26" y2="1072.98" gradientUnits="userSpaceOnUse">
<stop stop-color="white"/>
<stop offset="1"/>
</linearGradient>
<linearGradient id="paint43_linear_1_3" x1="1929.43" y1="-20.8973" x2="1985.64" y2="1074.03" gradientUnits="userSpaceOnUse">
<stop stop-color="white"/>
<stop offset="1"/>
</linearGradient>
<linearGradient id="paint44_linear_1_3" x1="1949.81" y1="-19.8403" x2="2006.02" y2="1075.09" gradientUnits="userSpaceOnUse">
<stop stop-color="white"/>
<stop offset="1"/>
</linearGradient>
<linearGradient id="paint45_linear_1_3" x1="1970.1" y1="-18.8801" x2="2026.31" y2="1076.15" gradientUnits="userSpaceOnUse">
<stop stop-color="white"/>
<stop offset="1"/>
</linearGradient>
<linearGradient id="paint46_linear_1_3" x1="1990.48" y1="-17.8232" x2="2046.69" y2="1077.11" gradientUnits="userSpaceOnUse">
<stop stop-color="white"/>
<stop offset="1"/>
</linearGradient>
<linearGradient id="paint47_linear_1_3" x1="2010.86" y1="-16.766" x2="2067.07" y2="1078.16" gradientUnits="userSpaceOnUse">
<stop stop-color="white"/>
<stop offset="1"/>
</linearGradient>
<linearGradient id="paint48_linear_1_3" x1="2031.14" y1="-15.71" x2="2087.36" y2="1079.22" gradientUnits="userSpaceOnUse">
<stop stop-color="white"/>
<stop offset="1"/>
</linearGradient>
<linearGradient id="paint49_linear_1_3" x1="2051.52" y1="-14.6528" x2="2107.74" y2="1080.28" gradientUnits="userSpaceOnUse">
<stop stop-color="white"/>
<stop offset="1"/>
</linearGradient>
<linearGradient id="paint50_linear_1_3" x1="2071.9" y1="-13.5949" x2="2128.12" y2="1081.33" gradientUnits="userSpaceOnUse">
<stop stop-color="white"/>
<stop offset="1"/>
</linearGradient>
<linearGradient id="paint51_linear_1_3" x1="2092.19" y1="-12.538" x2="2148.4" y2="1082.39" gradientUnits="userSpaceOnUse">
<stop stop-color="white"/>
<stop offset="1"/>
</linearGradient>
<linearGradient id="paint52_linear_1_3" x1="2112.57" y1="-11.4817" x2="2168.78" y2="1083.45" gradientUnits="userSpaceOnUse">
<stop stop-color="white"/>
<stop offset="1"/>
</linearGradient>
<linearGradient id="paint53_linear_1_3" x1="2132.95" y1="-10.5209" x2="2189.16" y2="1084.5" gradientUnits="userSpaceOnUse">
<stop stop-color="white"/>
<stop offset="1"/>
</linearGradient>
<linearGradient id="paint54_linear_1_3" x1="2153.24" y1="-9.4646" x2="2209.45" y2="1085.47" gradientUnits="userSpaceOnUse">
<stop stop-color="white"/>
<stop offset="1"/>
</linearGradient>
<linearGradient id="paint55_linear_1_3" x1="2173.62" y1="-8.40771" x2="2229.83" y2="1086.52" gradientUnits="userSpaceOnUse">
<stop stop-color="white"/>
<stop offset="1"/>
</linearGradient>
<linearGradient id="paint56_linear_1_3" x1="2194" y1="-7.35044" x2="2250.21" y2="1087.58" gradientUnits="userSpaceOnUse">
<stop stop-color="white"/>
<stop offset="1"/>
</linearGradient>
<linearGradient id="paint57_linear_1_3" x1="2214.29" y1="-6.29353" x2="2270.5" y2="1088.64" gradientUnits="userSpaceOnUse">
<stop stop-color="white"/>
<stop offset="1"/>
</linearGradient>
<linearGradient id="paint58_linear_1_3" x1="2234.67" y1="-5.23724" x2="2290.88" y2="1089.69" gradientUnits="userSpaceOnUse">
<stop stop-color="white"/>
<stop offset="1"/>
</linearGradient>
<linearGradient id="paint59_linear_1_3" x1="2255.05" y1="-4.18035" x2="2311.26" y2="1090.75" gradientUnits="userSpaceOnUse">
<stop stop-color="white"/>
<stop offset="1"/>
</linearGradient>
<linearGradient id="paint60_linear_1_3" x1="2275.33" y1="-3.1231" x2="2331.55" y2="1091.81" gradientUnits="userSpaceOnUse">
<stop stop-color="white"/>
<stop offset="1"/>
</linearGradient>
<linearGradient id="paint61_linear_1_3" x1="2295.71" y1="-2.16328" x2="2351.93" y2="1092.86" gradientUnits="userSpaceOnUse">
<stop stop-color="white"/>
<stop offset="1"/>
</linearGradient>
<linearGradient id="paint62_linear_1_3" x1="2316.1" y1="-1.10638" x2="2372.31" y2="1093.82" gradientUnits="userSpaceOnUse">
<stop stop-color="white"/>
<stop offset="1"/>
</linearGradient>
<linearGradient id="paint63_linear_1_3" x1="2336.48" y1="-0.0481293" x2="2392.59" y2="1094.88" gradientUnits="userSpaceOnUse">
<stop stop-color="white"/>
<stop offset="1"/>
</linearGradient>
<linearGradient id="paint64_linear_1_3" x1="2356.76" y1="1.00877" x2="2412.97" y2="1095.94" gradientUnits="userSpaceOnUse">
<stop stop-color="white"/>
<stop offset="1"/>
</linearGradient>
<linearGradient id="paint65_linear_1_3" x1="2377.14" y1="2.06511" x2="2433.35" y2="1096.99" gradientUnits="userSpaceOnUse">
<stop stop-color="white"/>
<stop offset="1"/>
</linearGradient>
<linearGradient id="paint66_linear_1_3" x1="2397.52" y1="3.12196" x2="2453.64" y2="1098.05" gradientUnits="userSpaceOnUse">
<stop stop-color="white"/>
<stop offset="1"/>
</linearGradient>
<linearGradient id="paint67_linear_1_3" x1="2417.81" y1="4.1783" x2="2474.02" y2="1099.11" gradientUnits="userSpaceOnUse">
<stop stop-color="white"/>
<stop offset="1"/>
</linearGradient>
<linearGradient id="paint68_linear_1_3" x1="2438.19" y1="5.23517" x2="2494.4" y2="1100.16" gradientUnits="userSpaceOnUse">
<stop stop-color="white"/>
<stop offset="1"/>
</linearGradient>
<linearGradient id="paint69_linear_1_3" x1="2458.57" y1="6.19612" x2="2514.69" y2="1101.22" gradientUnits="userSpaceOnUse">
<stop stop-color="white"/>
<stop offset="1"/>
</linearGradient>
<linearGradient id="paint70_linear_1_3" x1="2478.86" y1="7.25327" x2="2535.07" y2="1102.18" gradientUnits="userSpaceOnUse">
<stop stop-color="white"/>
<stop offset="1"/>
</linearGradient>
<linearGradient id="paint71_linear_1_3" x1="2499.24" y1="8.30986" x2="2555.45" y2="1103.24" gradientUnits="userSpaceOnUse">
<stop stop-color="white"/>
<stop offset="1"/>
</linearGradient>
<linearGradient id="paint72_linear_1_3" x1="2519.62" y1="9.36642" x2="2575.73" y2="1104.3" gradientUnits="userSpaceOnUse">
<stop stop-color="white"/>
<stop offset="1"/>
</linearGradient>
<linearGradient id="paint73_linear_1_3" x1="2539.91" y1="10.4233" x2="2596.12" y2="1105.35" gradientUnits="userSpaceOnUse">
<stop stop-color="white"/>
<stop offset="1"/>
</linearGradient>
<linearGradient id="paint74_linear_1_3" x1="2560.29" y1="11.4796" x2="2616.5" y2="1106.41" gradientUnits="userSpaceOnUse">
<stop stop-color="white"/>
<stop offset="1"/>
</linearGradient>
<linearGradient id="paint75_linear_1_3" x1="2580.67" y1="12.5365" x2="2636.88" y2="1107.47" gradientUnits="userSpaceOnUse">
<stop stop-color="white"/>
<stop offset="1"/>
</linearGradient>
</defs>
</svg>
