<svg width="16" height="16" viewBox="0 0 16 16" fill="none" xmlns="http://www.w3.org/2000/svg">
<path d="M4.71462 6.54212L3.34262 7.91412C2.77996 8.47678 2.46387 9.2399 2.46387 10.0356C2.46387 10.8313 2.77996 11.5945 3.34262 12.1571C3.90528 12.7198 4.6684 13.0359 5.46412 13.0359C6.25984 13.0359 7.02296 12.7198 7.58562 12.1571L9.41362 10.3281C9.75292 9.98878 10.0059 9.57299 10.1512 9.11567C10.2966 8.65834 10.3301 8.17282 10.249 7.69986C10.1679 7.22689 9.97448 6.78029 9.68505 6.39753C9.39562 6.01477 9.0186 5.70702 8.58562 5.50012L7.99962 6.08612C7.94013 6.14572 7.88839 6.21258 7.84562 6.28512C8.18015 6.38129 8.48379 6.5631 8.72651 6.81258C8.96924 7.06206 9.14266 7.37057 9.22962 7.7076C9.31658 8.04464 9.31408 8.39854 9.22235 8.73431C9.13063 9.07008 8.95286 9.37611 8.70662 9.62212L6.87962 11.4501C6.50434 11.8254 5.99535 12.0362 5.46462 12.0362C4.93389 12.0362 4.4249 11.8254 4.04962 11.4501C3.67434 11.0748 3.46351 10.5658 3.46351 10.0351C3.46351 9.50439 3.67434 8.9954 4.04962 8.62012L4.84262 7.82812C4.73074 7.40885 4.68751 6.97422 4.71462 6.54112V6.54212Z" fill="white"/>
<path d="M6.58562 4.67209C6.24633 5.01143 5.99339 5.42721 5.84803 5.88454C5.70268 6.34186 5.66915 6.82739 5.75026 7.30035C5.83137 7.77332 6.02476 8.21992 6.31419 8.60268C6.60362 8.98544 6.98065 9.29319 7.41362 9.50009L8.18862 8.72409C7.84957 8.63314 7.54043 8.45456 7.29226 8.20629C7.04409 7.95802 6.86564 7.6488 6.77483 7.30971C6.68403 6.97062 6.68408 6.6136 6.77497 6.27453C6.86586 5.93547 7.04439 5.62629 7.29262 5.37809L9.11962 3.55009C9.4949 3.1748 10.0039 2.96397 10.5346 2.96397C11.0653 2.96397 11.5743 3.1748 11.9496 3.55009C12.3249 3.92537 12.5357 4.43436 12.5357 4.96509C12.5357 5.49581 12.3249 6.0048 11.9496 6.38009L11.1566 7.17209C11.2686 7.59209 11.3116 8.02709 11.2846 8.45909L12.6566 7.08709C13.2193 6.52443 13.5354 5.7613 13.5354 4.96559C13.5354 4.16987 13.2193 3.40674 12.6566 2.84409C12.094 2.28143 11.3308 1.96533 10.5351 1.96533C9.7394 1.96533 8.97628 2.28143 8.41362 2.84409L6.58562 4.67209Z" fill="white"/>
</svg>
