<svg width="12" height="16" viewBox="0 0 12 16" fill="none" xmlns="http://www.w3.org/2000/svg">
<g clip-path="url(#clip0_1_902)">
<path d="M6.375 0.203125C3.16875 0.203125 0 2.34063 0 5.8C0 8 1.2375 9.25 1.9875 9.25C2.29688 9.25 2.475 8.3875 2.475 8.14375C2.475 7.85313 1.73438 7.23438 1.73438 6.025C1.73438 3.5125 3.64687 1.73125 6.12187 1.73125C8.25 1.73125 9.825 2.94062 9.825 5.1625C9.825 6.82187 9.15938 9.93437 7.00313 9.93437C6.225 9.93437 5.55937 9.37187 5.55937 8.56563C5.55937 7.38438 6.38438 6.24062 6.38438 5.02187C6.38438 2.95312 3.45 3.32812 3.45 5.82812C3.45 6.35313 3.51562 6.93437 3.75 7.4125C3.31875 9.26875 2.4375 12.0344 2.4375 13.9469C2.4375 14.5375 2.52187 15.1188 2.57812 15.7094C2.68438 15.8281 2.63125 15.8156 2.79375 15.7563C4.36875 13.6 4.3125 13.1781 5.025 10.3562C5.40938 11.0875 6.40313 11.4812 7.19063 11.4812C10.5094 11.4812 12 8.24688 12 5.33125C12 2.22813 9.31875 0.203125 6.375 0.203125Z" fill="#C5C5C5"/>
</g>
<defs>
<clipPath id="clip0_1_902">
<rect width="12" height="16" fill="white"/>
</clipPath>
</defs>
</svg>
